<svg xmlns="http://www.w3.org/2000/svg" width="135" height="33" viewBox="0 0 135 33">
    <path id="pathTab" d="M15554.024,14599H15465.7a31.705,31.705,0,0,1-7.591-.784,19.97,19.97,0,0,1-6.663-2.94c-4.358-2.979-8.145-8.021-11.917-15.869a22.677,22.677,0,0,0-10.844-11,25.517,25.517,0,0,0-9.656-2.386h87.267c.091-.006.332-.018.707-.018a25.341,25.341,0,0,1,9.538,1.979,22.538,22.538,0,0,1,6.329,4.017,23.756,23.756,0,0,1,5.453,7.405c3.767,7.848,7.552,12.89,11.911,15.869a19.969,19.969,0,0,0,6.661,2.94,30.976,30.976,0,0,0,7.134.782Z" transform="translate(-15419.024 -14566.001)"/>
</svg>
