<svg xmlns="http://www.w3.org/2000/svg" width="135" height="33" viewBox="0 0 135 33">
    <g id="pathTabLink" transform="translate(-542 -13)">
        <g>
            <path d="M15534.024,14599H15445.7a31.705,31.705,0,0,1-7.591-.784,19.97,19.97,0,0,1-6.663-2.94c-4.358-2.979-8.145-8.021-11.917-15.869a22.677,22.677,0,0,0-10.844-11,25.517,25.517,0,0,0-9.656-2.386h87.267c.091-.006.332-.018.707-.018a25.341,25.341,0,0,1,9.538,1.979,22.538,22.538,0,0,1,6.329,4.017,23.756,23.756,0,0,1,5.453,7.405c3.767,7.848,7.552,12.89,11.911,15.869a19.969,19.969,0,0,0,6.661,2.94,30.976,30.976,0,0,0,7.134.782Z" transform="translate(-14857.023 -14553)" fill="#FB6F46"/>
            <path d="M23366,18974h-80.326a31.735,31.735,0,0,1-7.59-.787c-.27-.064-.539-.135-.8-.211h85.8a20.884,20.884,0,0,1-3.443-1.9c-4.512-3.086-8.4-8.248-12.248-16.262a22.849,22.849,0,0,0-5.221-7.1,21.4,21.4,0,0,0-6.049-3.836,24.352,24.352,0,0,0-9.15-1.9c-.383,0-.6.012-.641.012l-.064.006h-81.262a25.533,25.533,0,0,0-6.008-1h87.27c.094-.012.334-.023.705-.023a25.3,25.3,0,0,1,9.537,1.982,22.546,22.546,0,0,1,6.33,4.014,23.767,23.767,0,0,1,5.455,7.408c3.766,7.85,7.551,12.889,11.914,15.867a19.892,19.892,0,0,0,6.658,2.939,31.14,31.14,0,0,0,7.133.787Z" transform="translate(-22697 -18928)" fill="#FB6F46"/>
        </g>
        <g transform="translate(-8 -5)">
            <path d="M-463,13.622-459.378,10h-3.294V9h5v5h-1V10.706l-3.622,3.622Z" transform="translate(1104 18)" fill="#fff"/>
            <rect width="7" height="7" transform="translate(640 27)" fill="none"/>
        </g>
    </g>
</svg>
