<svg xmlns="http://www.w3.org/2000/svg" width="82" height="45" viewBox="0 0 82 45"><g transform="translate(58.001 6.439)"><path d="M22667.975,18804.32a9.144,9.144,0,0,1-2.953-2.012,8.914,8.914,0,0,1-1.941-2.969,9.408,9.408,0,0,1-.707-3.633v-.066a9.534,9.534,0,0,1,.707-3.652,9.229,9.229,0,0,1,1.941-3,8.934,8.934,0,0,1,2.953-2.023,9.481,9.481,0,0,1,3.8-.746,9.58,9.58,0,0,1,4.207.813,9.37,9.37,0,0,1,2.949,2.227l-3.113,3.379a8.533,8.533,0,0,0-1.785-1.453,4.492,4.492,0,0,0-2.3-.547,3.835,3.835,0,0,0-1.754.4,4.126,4.126,0,0,0-1.375,1.066,4.948,4.948,0,0,0-.9,1.563,5.72,5.72,0,0,0-.316,1.914v.066a5.982,5.982,0,0,0,.316,1.961,4.661,4.661,0,0,0,.918,1.578,4.307,4.307,0,0,0,1.441,1.066,4.392,4.392,0,0,0,1.875.395,4.533,4.533,0,0,0,2.227-.527,9.266,9.266,0,0,0,1.891-1.4l2.98,3.035a11.931,11.931,0,0,1-2.98,2.387,9,9,0,0,1-4.348.926A9.372,9.372,0,0,1,22667.975,18804.32Zm34.891.016a12.591,12.591,0,0,1-3.8-2.074l2.172-3.379a12.56,12.56,0,0,0,2.926,1.621,7.9,7.9,0,0,0,2.73.539,2.8,2.8,0,0,0,1.621-.371,1.161,1.161,0,0,0,.52-.984v-.059a1.018,1.018,0,0,0-.3-.719,2.848,2.848,0,0,0-.824-.52q-.516-.217-1.184-.422c-.449-.129-.914-.281-1.41-.437-.621-.18-1.25-.4-1.891-.652a7.442,7.442,0,0,1-1.719-1.016,5.01,5.01,0,0,1-1.258-1.543,4.663,4.663,0,0,1-.477-2.223v-.07a5.5,5.5,0,0,1,.508-2.453,5.568,5.568,0,0,1,1.41-1.809,5.94,5.94,0,0,1,2.07-1.109,8.628,8.628,0,0,1,2.563-.375,11.566,11.566,0,0,1,3.465.559,12.589,12.589,0,0,1,3.227,1.535l-1.937,3.547a15.623,15.623,0,0,0-2.613-1.23,6.686,6.686,0,0,0-2.242-.457,2.3,2.3,0,0,0-1.4.355,1.066,1.066,0,0,0-.469.891v.07a.912.912,0,0,0,.293.664,3.624,3.624,0,0,0,.809.535,10.717,10.717,0,0,0,1.156.492c.438.152.895.313,1.391.473.621.2,1.258.445,1.9.727a7.848,7.848,0,0,1,1.738,1.027,4.984,4.984,0,0,1,1.27,1.492,4.219,4.219,0,0,1,.508,2.121v.07a6.137,6.137,0,0,1-.516,2.613,4.862,4.862,0,0,1-1.461,1.809,6.4,6.4,0,0,1-2.191,1.066,9.907,9.907,0,0,1-2.7.352A12.439,12.439,0,0,1,22702.865,18804.336Zm-9.816.316-4.687-7.391-1.77,1.891v5.5h-5.082V18780h5.082v13.141l5.957-6.59h6.086l-6.828,7.129,7.063,10.973Zm-60.051,0v-23.637h9.57a11.241,11.241,0,0,1,3.766.586,7.793,7.793,0,0,1,2.8,1.676,7.357,7.357,0,0,1,1.777,2.586,8.68,8.68,0,0,1,.613,3.32v.07a8.588,8.588,0,0,1-.727,3.617,7.4,7.4,0,0,1-2.023,2.6,8.685,8.685,0,0,1-3.02,1.57,12.679,12.679,0,0,1-3.691.527h-3.918v7.086Zm5.152-11.719h4.078a4.185,4.185,0,0,0,3.016-1.023,3.419,3.419,0,0,0,1.078-2.551v-.07a3.256,3.256,0,0,0-1.125-2.668,4.694,4.694,0,0,0-3.062-.914h-3.984Z" transform="translate(-22690.994 -18774.742)" fill="#070303"/><path d="M22633,18808.289v-18.1h5.086v18.1Zm1.391-18.961.926-2.68.98.574-1.812,2.16c-.043.055-.078.078-.1.078S22634.361,18789.414,22634.389,18789.328Zm2.043-2.441-.992-.559-2.02-1.168a2.433,2.433,0,0,1,2.086-1.176l1.648-2.93-.531-.3a.257.257,0,0,1-.09-.34l.16-.285a.239.239,0,0,1,.332-.09l1.984,1.141,1.988,1.145a.251.251,0,0,1,.078.34l-.152.281a.253.253,0,0,1-.34.094l-.543-.309-1.648,2.93a2.433,2.433,0,0,1,.043,2.4Z" transform="translate(-22669.791 -18778.377)" fill="#53a73c" stroke="rgba(0,0,0,0)" stroke-width="1"/><rect width="82" height="45" transform="translate(-58.001 -6.439)" fill="none"/></g></svg>