<svg xmlns="http://www.w3.org/2000/svg" width="68" height="68" viewBox="0 0 68 68"><g transform="translate(-1481 -892)"><rect width="68" height="68" rx="20" transform="translate(1481 892)" fill="#f7f7f7"/><g transform="translate(452 675)"><path d="M4,1.5A2.5,2.5,0,0,0,1.5,4V19A2.5,2.5,0,0,0,4,21.5H26A2.5,2.5,0,0,0,28.5,19V4A2.5,2.5,0,0,0,26,1.5H4M4,0H26a4,4,0,0,1,4,4V19a4,4,0,0,1-4,4H4a4,4,0,0,1-4-4V4A4,4,0,0,1,4,0Z" transform="translate(1048 239)"/><rect width="16" height="1.5" rx="0.75" transform="translate(1048 248)"/><rect width="1.5" height="21" rx="0.75" transform="translate(1057.582 240)"/><path d="M-254.8,109.455h-2.4a.766.766,0,0,1-.8-.728.766.766,0,0,1,.8-.728h2.4a.766.766,0,0,1,.8.728A.766.766,0,0,1-254.8,109.455Z" transform="translate(1328.077 143.919)"/><path d="M-252.667,114.5h-4.667a.712.712,0,0,1-.667-.75.712.712,0,0,1,.667-.75h4.667a.712.712,0,0,1,.667.75A.712.712,0,0,1-252.667,114.5Z" transform="translate(1326.167 141.83)"/><g transform="translate(1051.956 244.916)"><path d="M1055.076,257.34a.75.75,0,0,1-.569-1.238l3.93-4.59a.75.75,0,0,1,1.139.976l-3.93,4.59A.748.748,0,0,1,1055.076,257.34Z" transform="translate(-1052.266 -248.587)" fill="#5055b1"/><path d="M1059.174,257.154a.748.748,0,0,1-.549-.239l-4.1-4.4a.75.75,0,1,1,1.1-1.022l4.1,4.4a.75.75,0,0,1-.549,1.261Z" transform="translate(-1048.793 -248.401)" fill="#5055b1"/><path d="M.661,4.432h0A2.636,2.636,0,0,1,0,2.684,2.718,2.718,0,0,1,2.75,0,2.717,2.717,0,0,1,5.5,2.684a2.637,2.637,0,0,1-.684,1.771L2.757,7Z" transform="translate(-0.124 5.821) rotate(-90)" fill="#f7f7f7"/><path d="M2.752,4.622l.9-1.11q.025-.031.051-.06A1.134,1.134,0,0,0,4,2.684,1.219,1.219,0,0,0,2.75,1.5,1.22,1.22,0,0,0,1.5,2.684a1.134,1.134,0,0,0,.289.757q.044.05.083.1l.88,1.078M2.757,7,.661,4.432h0A2.636,2.636,0,0,1,0,2.684,2.718,2.718,0,0,1,2.75,0,2.717,2.717,0,0,1,5.5,2.684a2.637,2.637,0,0,1-.684,1.771Z" transform="translate(-0.124 5.821) rotate(-90)" fill="#5055b1"/><path d="M.661,2.568h0A2.636,2.636,0,0,0,0,4.316,2.718,2.718,0,0,0,2.75,7,2.717,2.717,0,0,0,5.5,4.316a2.637,2.637,0,0,0-.684-1.771L2.757,0Z" transform="translate(5.876 5.821) rotate(-90)" fill="#f7f7f7"/><path d="M2.752,2.378l-.88,1.078q-.039.053-.083.1a1.134,1.134,0,0,0-.289.757A1.22,1.22,0,0,0,2.75,5.5,1.219,1.219,0,0,0,4,4.316a1.134,1.134,0,0,0-.3-.767q-.027-.029-.051-.06l-.9-1.11M2.757,0,4.816,2.545A2.637,2.637,0,0,1,5.5,4.316,2.717,2.717,0,0,1,2.75,7,2.718,2.718,0,0,1,0,4.316,2.636,2.636,0,0,1,.663,2.568h0Z" transform="translate(5.876 5.821) rotate(-90)" fill="#5055b1"/></g><rect width="30" height="30" transform="translate(1048 236)" fill="none"/></g></g></svg>