<svg xmlns="http://www.w3.org/2000/svg" width="68" height="68" viewBox="0 0 68 68"><g transform="translate(-371 -892)"><rect width="68" height="68" rx="20" transform="translate(371 892)" fill="#f7f7f7"/><g transform="translate(-585.894 232.571)"><g transform="translate(844.894 77.429)"><path d="M15,2.227a.492.492,0,0,0-.34.133l-2.19,2.03a3.49,3.49,0,0,1-2.38.933c-.05,0-.1,0-.149,0L6.975,5.195a.5.5,0,0,0-.517.434l-.4,3.045a3.48,3.48,0,0,1-1.314,2.3l-2.4,1.878a.5.5,0,0,0-.116.659L3.86,16.128a3.482,3.482,0,0,1,.453,2.6l-.654,3.023a.5.5,0,0,0,.335.582l2.859.921a3.478,3.478,0,0,1,2.038,1.729l1.387,2.693a.5.5,0,0,0,.638.232l2.733-1.144a3.5,3.5,0,0,1,2.7,0L19.084,27.9a.5.5,0,0,0,.638-.232l1.387-2.693a3.478,3.478,0,0,1,2.038-1.729l2.859-.921a.5.5,0,0,0,.335-.582l-.654-3.023a3.482,3.482,0,0,1,.453-2.6l1.634-2.615a.5.5,0,0,0-.116-.659l-2.4-1.878a3.48,3.48,0,0,1-1.314-2.3l-.4-3.045a.5.5,0,0,0-.495-.435h-.022l-2.967.126a3.49,3.49,0,0,1-2.528-.93l-2.19-2.03A.492.492,0,0,0,15,2.227m0-1.5a2,2,0,0,1,1.36.533l2.19,2.03a2,2,0,0,0,1.445.532L22.961,3.7a2,2,0,0,1,2.068,1.738l.4,3.045a2,2,0,0,0,.751,1.315l2.4,1.878a2,2,0,0,1,.464,2.635l-1.634,2.615a2,2,0,0,0-.259,1.483l.654,3.023a2,2,0,0,1-1.341,2.327l-2.859.921a2,2,0,0,0-1.165.988l-1.387,2.693a2,2,0,0,1-2.55.929l-2.733-1.144a2,2,0,0,0-1.544,0l-2.733,1.144a2,2,0,0,1-2.55-.929L7.558,25.664a2,2,0,0,0-1.165-.988l-2.859-.921a2,2,0,0,1-1.341-2.327l.654-3.023a2,2,0,0,0-.259-1.483L.954,14.307a2,2,0,0,1,.464-2.635l2.4-1.878a2,2,0,0,0,.751-1.315l.4-3.045A2,2,0,0,1,7.039,3.7l2.967.126a2,2,0,0,0,1.445-.532l2.19-2.03A2,2,0,0,1,15,.727Z" transform="translate(131 601)"/><path d="M3.34-7.456c.3-.637.055-.956-.309-1.069-.386-.125-.86.08-1.157.728L-2.039.325c-.3.637-.044.967.331,1.081S-.837,1.314-.54.677Zm1.288,8.9A1.876,1.876,0,0,0,6.645-.586V-1.712A1.882,1.882,0,0,0,4.628-3.737,1.891,1.891,0,0,0,2.6-1.712V-.586A1.885,1.885,0,0,0,4.628,1.439Zm0-1.5a.473.473,0,0,1-.474-.512V-1.723a.48.48,0,0,1,.474-.512.472.472,0,0,1,.463.512V-.574A.465.465,0,0,1,4.628-.062ZM-3.327-3.384A1.876,1.876,0,0,0-1.31-5.409V-6.535A1.882,1.882,0,0,0-3.327-8.56,1.891,1.891,0,0,0-5.355-6.535v1.126A1.885,1.885,0,0,0-3.327-3.384Zm0-1.5A.473.473,0,0,1-3.8-5.4V-6.546a.48.48,0,0,1,.474-.512.472.472,0,0,1,.463.512V-5.4A.465.465,0,0,1-3.327-4.886Z" transform="translate(145.355 619.561)" fill="#5055b1"/></g><rect width="30" height="30" transform="translate(975.893 678.429)" fill="none"/></g></g></svg>