<svg xmlns="http://www.w3.org/2000/svg" width="68" height="68" viewBox="0 0 68 68"><g transform="translate(-1279 -892)"><rect width="68" height="68" rx="20" transform="translate(1279 892)" fill="#f7f7f7"/><g transform="translate(107 -122)"><path d="M2.351,18.877a.956.956,0,0,0,.517-.171l3.305-2.139a1.147,1.147,0,0,0,.137-.1l.082-.073.022-.015L16.5,4.322a1.2,1.2,0,0,0-.326-.443L13.791,1.764a1.171,1.171,0,0,0-.387-.237l-10.042,12-.017.049-.073.127a1.253,1.253,0,0,0-.059.118l-1.6,3.661a1,1,0,0,0,.042.99.858.858,0,0,0,.7.4m0,1.5A2.429,2.429,0,0,1,.235,16.882l1.6-3.661a2.748,2.748,0,0,1,.131-.26.975.975,0,0,1,.176-.317L12.424.361c.481-.575,1.539-.449,2.362.281L17.17,2.757c.823.73,1.1,1.788.619,2.363L7.511,17.4a.938.938,0,0,1-.207.183,2.639,2.639,0,0,1-.316.24L3.683,19.965A2.439,2.439,0,0,1,2.351,20.377Z" transform="matrix(0.996, 0.087, -0.087, 0.996, 1195.343, 1036.134)"/><rect width="1.5" height="4" rx="0.75" transform="translate(1193.108 1058.269) rotate(-135)"/><rect width="1.5" height="3.919" rx="0.75" transform="translate(1208.418 1042.824) rotate(135)"/><path d="M2.939,5.452H1.763A2.516,2.516,0,0,1-.75,2.939.75.75,0,0,1,0,2.189a.75.75,0,0,1,.75.75A1.015,1.015,0,0,0,1.763,3.952H2.939A1.015,1.015,0,0,0,3.952,2.939V.75H0A.75.75,0,0,1-.75,0,.75.75,0,0,1,0-.75H4.7a.75.75,0,0,1,.75.75V2.939A2.516,2.516,0,0,1,2.939,5.452Z" transform="translate(1214.134 1039.649) rotate(-135)"/><path d="M-16855.291-5515.911a4.909,4.909,0,0,1-3.172-1.184,4.961,4.961,0,0,0-3.416-1.167,4.821,4.821,0,0,0-3.291,1.083,5.72,5.72,0,0,1-3.736,1.265h-.076c-3.99-.036-5.279-2.665-5.332-2.777l1.355-.642,0-.007c.039.078.982,1.9,3.992,1.925h.068a4.238,4.238,0,0,0,2.871-.992,6.275,6.275,0,0,1,4.152-1.356,6.447,6.447,0,0,1,4.3,1.454,3.424,3.424,0,0,0,2.281.9c.051,0,.1,0,.156,0a6.988,6.988,0,0,0,4.459-2.1.751.751,0,0,1,1.059-.056.748.748,0,0,1,.059,1.057,8.4,8.4,0,0,1-5.525,2.6C-16855.16-5515.912-16855.227-5515.911-16855.291-5515.911Z" transform="translate(18065.637 6578.657)" fill="#5055b1"/><rect width="30" height="30" transform="translate(1191 1033)" fill="none"/></g></g></svg>