<svg xmlns="http://www.w3.org/2000/svg" width="68" height="68" viewBox="0 0 68 68">
  <g id="icon_" data-name="icon " transform="translate(-1176.532 -1019.44)">
    <g id="그룹_923" data-name="그룹 923" transform="translate(1192.532 1038.44)">
      <rect id="사각형_3444" data-name="사각형 3444" width="68" height="68" rx="20" transform="translate(-16 -19)" fill="#f7f7f7"/>
      <g id="그룹_1019" data-name="그룹 1019" transform="translate(0 0)">
        <g id="그룹_1021" data-name="그룹 1021">
          <g id="레이어_1" data-name="레이어 1">
            <path id="패스_14684" data-name="패스 14684" d="M66.858,0c0,.008,0,.019.009.023a.359.359,0,0,1,.124.329q0,6.231,0,12.463c0,.094,0,.183-.09.238a.227.227,0,0,1-.1.041c-.159,0-.318,0-.477,0a.221.221,0,0,1-.2-.2V.408A.45.45,0,0,1,66.268,0Z" transform="translate(-30.995 0.002)"/>
            <path id="패스_14685" data-name="패스 14685" d="M19.864,0a.46.46,0,0,1,.147.411q-.006,3.358,0,6.716a.229.229,0,0,1-.065.2.225.225,0,0,1-.169.071c-.134-.005-.267,0-.4,0a.214.214,0,0,1-.237-.237V5.548c0-.05,0-.1-.009-.162H16.791a.216.216,0,0,1-.2-.088.228.228,0,0,1-.045-.113c-.005-.145,0-.292,0-.438a.207.207,0,0,1,.212-.207h2.368a.763.763,0,0,0,.017-.108V2.447a.79.79,0,0,0-.011-.087c-.057,0-.111-.009-.165-.009H16.8a.229.229,0,0,1-.2-.07.2.2,0,0,1-.059-.148c0-.129,0-.258,0-.387a.218.218,0,0,1,.242-.244h2.346c0-.059.009-.108.009-.159,0-.348,0-.7,0-1.044a.274.274,0,0,1,.1-.249A.211.211,0,0,0,19.274,0Z" transform="translate(-9.016 0.001)"/>
            <path id="패스_14686" data-name="패스 14686" d="M43.613,0a.44.44,0,0,1,.15.4c-.008.825,0,1.65,0,2.474v.171c.057,0,.108.006.156.006h1.532c.178,0,.253.077.254.258v.374a.205.205,0,0,1-.216.216H43.759V7.069a.235.235,0,0,1-.077.193.192.192,0,0,1-.148.058c-.142,0-.283,0-.425,0a.211.211,0,0,1-.22-.213c0-.039,0-.077,0-.116V.444A.506.506,0,0,1,43.02,0Z" transform="translate(-20.697 0.001)"/>
            <path id="패스_14687" data-name="패스 14687" d="M3.045,27.34c.035,0,.073-.006.108-.006,1.5,0,3,0,4.5,0a4.981,4.981,0,0,1,1.767.308,3.261,3.261,0,0,1,.675.347,2.734,2.734,0,0,1,1.2,1.866,2.915,2.915,0,0,1-.054,1.39,2.527,2.527,0,0,1-.753,1.179,2.021,2.021,0,0,1-.7.4c-.028.009-.054.021-.083.032,0,0,0,.006-.017.025l.141.041a2.768,2.768,0,0,1,1.419.889,2.643,2.643,0,0,1,.625,1.771,3.232,3.232,0,0,1-.282,1.365,2.907,2.907,0,0,1-1.46,1.428,4.372,4.372,0,0,1-1.5.391c-.282.024-.566.032-.849.033q-2.282,0-4.563,0H3.054C3.022,38.706,3.018,27.488,3.045,27.34Zm1.419,6.3v2.905c0,.322-.008.641.007.97h.171c1.061,0,2.122,0,3.184,0a6.447,6.447,0,0,0,.757-.05,2.532,2.532,0,0,0,.95-.307,1.658,1.658,0,0,0,.827-1.053,2.073,2.073,0,0,0,.061-.677,1.681,1.681,0,0,0-.933-1.46,2.962,2.962,0,0,0-.487-.2,3.792,3.792,0,0,0-1.147-.141H4.619Zm.023-1.247H7.432a5.886,5.886,0,0,0,.617-.031A2.52,2.52,0,0,0,9.1,32.031a1.568,1.568,0,0,0,.74-1A2.177,2.177,0,0,0,9.88,30.2a1.6,1.6,0,0,0-.57-1.063,1.959,1.959,0,0,0-.57-.32,3.448,3.448,0,0,0-1.2-.194c-.979,0-1.959,0-2.938,0a1.17,1.17,0,0,0-.119.01C4.454,28.8,4.46,32.285,4.488,32.393Z" transform="translate(-3.027 -12.115)"/>
            <path id="패스_14688" data-name="패스 14688" d="M32.188,33.073h1.4c0,.054.006.1.006.152v7.851a4.055,4.055,0,0,1-.364,1.752,3.5,3.5,0,0,1-2.585,2.027,4.4,4.4,0,0,1-2.379-.144,3.3,3.3,0,0,1-2.194-2.421c-.016-.058-.026-.117-.039-.176,0-.012,0-.025,0-.049a1.407,1.407,0,0,1,.353-.016c.117,0,.241,0,.361,0h.7c.014.038.024.061.031.085a1.878,1.878,0,0,0,1.394,1.428,2.845,2.845,0,0,0,1.787-.035,2.191,2.191,0,0,0,1.362-1.417,2.852,2.852,0,0,0,.162-.9c.007-.387,0-.773,0-1.16,0-.024,0-.048-.01-.092a.6.6,0,0,0-.054.054,2.892,2.892,0,0,1-1.769,1.206A3.8,3.8,0,0,1,25.817,38.9a4.723,4.723,0,0,1-.319-2.185,4.455,4.455,0,0,1,.66-2.054,3.791,3.791,0,0,1,4.92-1.394,2.692,2.692,0,0,1,1.042.927c.012.017.026.033.051.064a1.819,1.819,0,0,0,.016-.39c0-.134,0-.267,0-.4Zm.028,4.055a3.352,3.352,0,0,0-.188-1.152,2.62,2.62,0,0,0-3.082-1.761,2.4,2.4,0,0,0-1.771,1.438,3.48,3.48,0,0,0-.108,2.662,2.5,2.5,0,0,0,2.553,1.761,2.527,2.527,0,0,0,2.206-1.363,3.215,3.215,0,0,0,.389-1.583Z" transform="translate(-12.979 -14.564)"/>
            <path id="패스_14689" data-name="패스 14689" d="M9.3,19.13a11.655,11.655,0,0,1-2.154-.189,6.016,6.016,0,0,1-1.508-.469,2.97,2.97,0,0,1-.853-.595,1.946,1.946,0,0,1,0-2.74,3.076,3.076,0,0,1,.97-.649A6.464,6.464,0,0,1,7.3,14.048a13.741,13.741,0,0,1,2.877-.147,9.546,9.546,0,0,1,2.212.327,4.69,4.69,0,0,1,1.173.487,2.687,2.687,0,0,1,.582.471,1.938,1.938,0,0,1,.009,2.636,2.831,2.831,0,0,1-.815.6,5.586,5.586,0,0,1-1.474.49A12.164,12.164,0,0,1,9.3,19.13Zm.05-4.393a10.428,10.428,0,0,0-2.186.209,4.561,4.561,0,0,0-1.2.41,1.977,1.977,0,0,0-.547.4,1.057,1.057,0,0,0,.012,1.508,2.259,2.259,0,0,0,.425.331,3.567,3.567,0,0,0,.988.4,9.1,9.1,0,0,0,2.012.277,12.134,12.134,0,0,0,2.581-.147,5.249,5.249,0,0,0,1.377-.414,2.151,2.151,0,0,0,.6-.411,1.073,1.073,0,0,0,0-1.584,2.176,2.176,0,0,0-.6-.411,5,5,0,0,0-1.238-.387,11.313,11.313,0,0,0-2.221-.183Z" transform="translate(-3.557 -6.154)"/>
            <path id="패스_14690" data-name="패스 14690" d="M31.412,13.772A12.53,12.53,0,0,1,33.857,14a5.792,5.792,0,0,1,1.343.441,3.265,3.265,0,0,1,.739.487,2.006,2.006,0,0,1-.009,3.008,3.58,3.58,0,0,1-1.108.644,7.3,7.3,0,0,1-1.6.388,13.752,13.752,0,0,1-2.508.1,8.811,8.811,0,0,1-2.532-.432,3.829,3.829,0,0,1-1.074-.549,2.014,2.014,0,0,1-.179-3.163,3.5,3.5,0,0,1,1.216-.685,7.707,7.707,0,0,1,1.643-.367,15.732,15.732,0,0,1,1.622-.094Zm.019.847c-.309.013-.618.023-.927.039a8.293,8.293,0,0,0-1.476.212,4.239,4.239,0,0,0-1.107.41,1.862,1.862,0,0,0-.541.432,1.1,1.1,0,0,0-.006,1.422,1.863,1.863,0,0,0,.548.442,3.825,3.825,0,0,0,.846.341,8.865,8.865,0,0,0,2.217.3c.416.01.833,0,1.249-.018a8.2,8.2,0,0,0,1.568-.211,4.038,4.038,0,0,0,1.266-.495,1.664,1.664,0,0,0,.463-.42,1.077,1.077,0,0,0,0-1.287,1.514,1.514,0,0,0-.324-.327,3.312,3.312,0,0,0-.532-.311,5.158,5.158,0,0,0-1.371-.388A12.017,12.017,0,0,0,31.431,14.618Z" transform="translate(-13.32 -6.104)"/>
            <path id="패스_14691" data-name="패스 14691" d="M55.6,4.823a4.43,4.43,0,0,1-.5,2.113,3.589,3.589,0,0,1-2.674,1.917,3.881,3.881,0,0,1-2.139-.22,3.513,3.513,0,0,1-1.96-1.88A4.453,4.453,0,0,1,48.347,2.9,3.526,3.526,0,0,1,51.112.838a3.792,3.792,0,0,1,2.531.424,3.731,3.731,0,0,1,1.8,2.392A4.846,4.846,0,0,1,55.6,4.823Zm-.884-.047c-.007-.09-.014-.261-.034-.432a3.312,3.312,0,0,0-.074-.4,3,3,0,0,0-1-1.669,2.85,2.85,0,0,0-2.3-.6,2.672,2.672,0,0,0-2.142,1.567,3.655,3.655,0,0,0-.011,3.212,2.674,2.674,0,0,0,1.462,1.4,2.993,2.993,0,0,0,1.5.194,2.725,2.725,0,0,0,2.125-1.372,3.624,3.624,0,0,0,.471-1.893Z" transform="translate(-22.917 -0.345)"/>
            <path id="패스_14692" data-name="패스 14692" d="M6.624.841H9.8a.225.225,0,0,1,.21.093.375.375,0,0,1,.043.1.231.231,0,0,1,0,.064V6.578A.218.218,0,0,1,10,6.756a.261.261,0,0,1-.2.084c-.894,0-1.788,0-2.681,0H3.439a.216.216,0,0,1-.2-.089A.449.449,0,0,1,3.2,6.638a.162.162,0,0,1,0-.051V1.094A.207.207,0,0,1,3.239.926a.259.259,0,0,1,.2-.087Q5.032.843,6.624.841ZM4.083,1.7c-.03.137-.025,4.169,0,4.264.178.026,4.992.017,5.087-.011V1.7Z" transform="translate(-3.101 -0.371)"/>
            <path id="패스_14693" data-name="패스 14693" d="M31.536,1.689H25.522a.222.222,0,0,1-.189-.054.236.236,0,0,1-.076-.179c.005-.133,0-.267,0-.4a.216.216,0,0,1,.212-.21h6.679c.063,0,.127-.015.182.041a.256.256,0,0,1,.091.2c-.005.408,0,.817,0,1.225a4.97,4.97,0,0,1-.494,2.167,4.246,4.246,0,0,1-1.791,1.834,6.976,6.976,0,0,1-1.953.711,11.008,11.008,0,0,1-1.838.237c-.283.013-.567.02-.85.026a.212.212,0,0,1-.232-.227v-.4a.221.221,0,0,1,.23-.234c.324-.012.645-.015.966-.037a8.465,8.465,0,0,0,2.685-.567,4.159,4.159,0,0,0,1.376-.89,3.448,3.448,0,0,0,.954-1.865,6.551,6.551,0,0,0,.078-1.309.591.591,0,0,0-.011-.07Z" transform="translate(-12.881 -0.373)"/>
            <path id="패스_14694" data-name="패스 14694" d="M20.921,33.244h1.393v8.178a11.715,11.715,0,0,1-1.393.009Z" transform="translate(-10.959 -14.735)"/>
            <path id="패스_14695" data-name="패스 14695" d="M56.617,20c-.192.075-.378.155-.568.216a8.013,8.013,0,0,1-1.42.31,21.323,21.323,0,0,1-3.034.183H47.3a.207.207,0,0,1-.2-.081.281.281,0,0,1-.051-.125c-.006-.145,0-.292,0-.438a.212.212,0,0,1,.2-.2h.1c1.367,0,2.733.005,4.1,0,.649,0,1.3-.017,1.946-.054a10.417,10.417,0,0,0,2.3-.354c.216-.063.43-.149.642-.229a.2.2,0,0,1,.274.168C56.618,19.587,56.617,19.78,56.617,20Z" transform="translate(-22.54 -8.515)"/>
            <path id="패스_14696" data-name="패스 14696" d="M22.359,27.4a.934.934,0,0,1-1.249.922.919.919,0,0,1-.621-.851,1.255,1.255,0,0,1,.038-.356.9.9,0,0,1,1.034-.668.919.919,0,0,1,.8.877A.741.741,0,0,1,22.359,27.4Z" transform="translate(-10.767 -11.718)"/>
          </g>
          <g id="그룹_1019-2" data-name="그룹 1019" transform="translate(20.376 15.195)">
            <path id="패스_14697" data-name="패스 14697" d="M-447.525,243.991a.3.3,0,0,0-.026.139,6.4,6.4,0,0,1-.851,2.969,4.356,4.356,0,0,1-.552.742,4.387,4.387,0,0,1-2.548,1.373,5.635,5.635,0,0,1-1.468.059,5.032,5.032,0,0,1-1.224-.249,4.354,4.354,0,0,1-1.451-.833,4.835,4.835,0,0,1-1.347-2,7.174,7.174,0,0,1-.4-1.725,9.184,9.184,0,0,1-.056-1.433,8.034,8.034,0,0,1,.423-2.393,5.172,5.172,0,0,1,.773-1.444,4.307,4.307,0,0,1,1.95-1.436,5.089,5.089,0,0,1,1.465-.3c.156-.009.313-.024.469-.018a5.074,5.074,0,0,1,2.294.578,4.315,4.315,0,0,1,1.318,1.112,5.42,5.42,0,0,1,.965,1.967,8.4,8.4,0,0,1,.235,1.282c.008.069,0,.139.006.209a.3.3,0,0,0,.026.153Zm-8.229-.627c0,.174.012.347.021.521a7.318,7.318,0,0,0,.086.816,4.987,4.987,0,0,0,.646,1.835,2.968,2.968,0,0,0,1.2,1.132,2.924,2.924,0,0,0,1.607.3,2.792,2.792,0,0,0,1.732-.792,3.515,3.515,0,0,0,.741-1.081,5.987,5.987,0,0,0,.494-2.136c.018-.259.016-.52.012-.781a7.47,7.47,0,0,0-.113-1.232,4.968,4.968,0,0,0-.593-1.677,3.085,3.085,0,0,0-1.2-1.184,2.883,2.883,0,0,0-1.825-.287,2.791,2.791,0,0,0-1.818,1.078,4.241,4.241,0,0,0-.755,1.578A7.659,7.659,0,0,0-455.754,243.364Z" transform="translate(463.145 -237.436)" fill="#5055b1"/>
            <path id="패스_14698" data-name="패스 14698" d="M-556.782,248.279q0,2.716,0,5.432c0,.223,0,.223-.221.223h-1.345l-.117,0a.082.082,0,0,1-.089-.09c0-.052,0-.1,0-.157q0-4.766,0-9.532c0-.26.017-.247-.25-.247h-2.351c-.194,0-.194,0-.194-.2,0-.309,0-.618,0-.927,0-.147.011-.158.155-.158h4.257c.147,0,.155.01.155.171q0,2.017,0,4.035Z" transform="translate(561.351 -242.338)" fill="#5055b1"/>
          </g>
        </g>
      </g>
    </g>
    <rect id="area" width="23.828" height="23.828" transform="translate(1197.543 1040.519)" fill="none"/>
  </g>
</svg>
