<svg xmlns="http://www.w3.org/2000/svg" width="68" height="68" viewBox="0 0 68 68"><g transform="translate(-472 -892)"><rect width="68" height="68" rx="20" transform="translate(472 892)" fill="#f7f7f7"/><g transform="translate(545.001 921.439)"><path d="M22649.4,18791.4a4.377,4.377,0,0,1-1.387-.941,4.219,4.219,0,0,1-.91-1.393,4.425,4.425,0,0,1-.33-1.7v-.031a4.481,4.481,0,0,1,.33-1.713,4.349,4.349,0,0,1,.91-1.408,4.213,4.213,0,0,1,1.387-.949,5.009,5.009,0,0,1,3.756.031,4.39,4.39,0,0,1,1.383,1.043l-1.461,1.586a3.894,3.894,0,0,0-.838-.682,2.08,2.08,0,0,0-1.076-.256,1.8,1.8,0,0,0-.824.186,1.98,1.98,0,0,0-.641.5,2.414,2.414,0,0,0-.428.736,2.748,2.748,0,0,0-.146.9v.031a2.9,2.9,0,0,0,.146.92,2.241,2.241,0,0,0,.434.738,2.024,2.024,0,0,0,.676.5,2.275,2.275,0,0,0,1.924-.066,4.374,4.374,0,0,0,.887-.654l1.4,1.424a5.548,5.548,0,0,1-1.4,1.119,4.237,4.237,0,0,1-2.039.436A4.365,4.365,0,0,1,22649.4,18791.4Zm16.361.01a5.92,5.92,0,0,1-1.779-.973l1.018-1.586a5.787,5.787,0,0,0,1.373.76,3.661,3.661,0,0,0,1.277.254,1.351,1.351,0,0,0,.762-.172.553.553,0,0,0,.244-.463v-.029a.464.464,0,0,0-.141-.334,1.32,1.32,0,0,0-.385-.246,5.477,5.477,0,0,0-.557-.2c-.211-.062-.428-.131-.662-.207-.287-.084-.584-.187-.885-.3a3.412,3.412,0,0,1-.807-.479,2.331,2.331,0,0,1-.59-.725,2.174,2.174,0,0,1-.223-1.043v-.031a2.574,2.574,0,0,1,.238-1.15,2.609,2.609,0,0,1,.662-.848,2.742,2.742,0,0,1,.969-.52,3.99,3.99,0,0,1,1.2-.178,5.36,5.36,0,0,1,1.623.264,5.934,5.934,0,0,1,1.514.719l-.908,1.666a7.35,7.35,0,0,0-1.227-.58,3.115,3.115,0,0,0-1.051-.213,1.069,1.069,0,0,0-.658.168.5.5,0,0,0-.219.416v.033a.425.425,0,0,0,.137.311,1.555,1.555,0,0,0,.379.252,5.57,5.57,0,0,0,.545.232c.2.07.416.145.648.221q.439.144.895.338a3.862,3.862,0,0,1,.816.482,2.368,2.368,0,0,1,.592.7,1.951,1.951,0,0,1,.24.994v.035a2.856,2.856,0,0,1-.242,1.223,2.271,2.271,0,0,1-.686.848,3.01,3.01,0,0,1-1.025.5,4.693,4.693,0,0,1-1.268.164A5.756,5.756,0,0,1,22665.762,18791.412Zm-4.6.146-2.2-3.465-.83.889v2.576h-2.383V18780h2.383v6.16l2.793-3.088h2.852l-3.2,3.342,3.311,5.145Zm-28.16,0v-11.082h4.488a5.26,5.26,0,0,1,1.766.275,3.69,3.69,0,0,1,1.314.785,3.441,3.441,0,0,1,.836,1.213,4.076,4.076,0,0,1,.285,1.557v.031a4.03,4.03,0,0,1-.338,1.7,3.473,3.473,0,0,1-.953,1.217,4.072,4.072,0,0,1-1.414.74,6.035,6.035,0,0,1-1.73.242h-1.836v3.324Zm2.418-5.5h1.912a1.958,1.958,0,0,0,1.414-.48,1.6,1.6,0,0,0,.5-1.191v-.035a1.532,1.532,0,0,0-.527-1.252,2.2,2.2,0,0,0-1.436-.43h-1.867Z" transform="translate(-22690.996 -18780.955)" fill="#070303"/><path d="M22633,18793.268v-8.49h2.385v8.49Zm.654-8.895.434-1.254.459.268-.85,1.012c-.02.025-.037.039-.047.039S22633.639,18784.414,22633.652,18784.373Zm.955-1.145-.465-.264-.945-.545a1.132,1.132,0,0,1,.979-.551l.771-1.375-.248-.141a.124.124,0,0,1-.043-.162l.074-.133a.114.114,0,0,1,.158-.041l.93.535.932.535a.121.121,0,0,1,.039.158l-.072.133a.123.123,0,0,1-.16.045l-.256-.146-.773,1.375a1.149,1.149,0,0,1,.023,1.125Z" transform="translate(-22681.055 -18782.66)" fill="#070203" stroke="rgba(0,0,0,0)" stroke-width="1"/><rect width="39" height="22" transform="translate(-58.001 -6.439)" fill="none"/></g></g></svg>