<svg xmlns="http://www.w3.org/2000/svg" width="68" height="68" viewBox="0 0 68 68"><g transform="translate(-573 -892)"><rect width="68" height="68" rx="20" transform="translate(573 892)" fill="#f7f7f7"/><g transform="translate(560 251)"><path d="M1.5,1.5V13A1.5,1.5,0,0,0,3,14.5H21A1.5,1.5,0,0,0,22.5,13V1.5H1.5M0,0H24V13a3,3,0,0,1-3,3H3a3,3,0,0,1-3-3Z" transform="translate(35 671)"/><path d="M17.776,2.5a1.8,1.8,0,0,0-1.284.532c-.021.021-.53.553-1.264,3.307-.063.238-.123.473-.179.7.222-.054.451-.113.684-.175C18.5,6.129,19.039,5.619,19.06,5.6a1.814,1.814,0,0,0-1.284-3.1m0-1.5a3.314,3.314,0,0,1,2.345,5.658C18.825,7.953,13.087,9,13.087,9s1.049-5.735,2.345-7.03A3.306,3.306,0,0,1,17.776,1Z" transform="translate(33.412 658.998)" fill="#5055b1"/><path d="M16.4,2.5a1.814,1.814,0,0,0-1.284,3.1c.021.021.554.53,3.309,1.263.239.064.474.123.7.179-.054-.221-.113-.45-.174-.683-.736-2.769-1.247-3.3-1.269-3.325A1.8,1.8,0,0,0,16.4,2.5m0-1.5a3.306,3.306,0,0,1,2.345.971C20.042,3.266,21.091,9,21.091,9s-5.738-1.048-7.034-2.343A3.314,3.314,0,0,1,16.4,1Z" transform="translate(26.41 658.998)" fill="#5055b1"/><rect width="28" height="7.5" rx="2" transform="translate(33 666)" fill="#f7f7f7"/><path d="M2,1.5a.5.5,0,0,0-.5.5V5.5A.5.5,0,0,0,2,6H26a.5.5,0,0,0,.5-.5V2a.5.5,0,0,0-.5-.5H2M2,0H26a2,2,0,0,1,2,2V5.5a2,2,0,0,1-2,2H2a2,2,0,0,1-2-2V2A2,2,0,0,1,2,0Z" transform="translate(33 666)"/><rect width="1.5" height="21" transform="translate(46.25 666)" fill="#5055b1"/><rect width="30" height="30" transform="translate(32 660)" fill="#f7f7f7" opacity="0"/></g></g></svg>