<svg xmlns="http://www.w3.org/2000/svg" width="68" height="68" viewBox="0 0 68 68"><g transform="translate(-674 -892)"><rect width="68" height="68" rx="20" transform="translate(674 892)" fill="#f7f7f7"/><path d="M2609.847,1680.414a2.286,2.286,0,0,1-.69-1.812h0a.962.962,0,0,1,.992-.86h6.615v-.612h-6.626l-.041,0v0h-.955v-.892h0c0-.007,0-.015,0-.021a.958.958,0,0,1,1-.913h7.46a.963.963,0,0,1,.994.852h0v2.5h0a.957.957,0,0,1-1,.913h-5.884a5.982,5.982,0,0,0,1.748.593,21.74,21.74,0,0,0,5.13.26v1.828c-.539.023-1.058.036-1.552.036C2613.417,1682.285,2611,1681.658,2609.847,1680.414Zm29.917-.041a2.384,2.384,0,0,0,1.683-.827,4.129,4.129,0,0,0,.759-2.388h-7.531v-.948h0a.974.974,0,0,1,1.016-.879h7.361a.987.987,0,0,1,1.007.788h0s0,.012,0,.023,0,.014,0,.022a6.681,6.681,0,0,1-1.171,4.57,4.272,4.272,0,0,1-3.131,1.518Zm-11.918-2.666v-.562H2620.7v-.442h7.149v-.134H2620.7l.06-.618,7.086-.013v0h1.66v-8.422l.088-.008.545-.046v8.1h0a.46.46,0,0,0-.05.165c0,.014,0,.03,0,.045a.452.452,0,0,0,.051.218v.107a.54.54,0,0,1-.071.325.425.425,0,0,1-.3.146h-.17a.437.437,0,0,0-.166-.05l-.045,0a.452.452,0,0,0-.22.052h-.3v.134h.311l.011-.009a.3.3,0,0,1,.165-.07h.03a.3.3,0,0,1,.176.057.217.217,0,0,1,.029.023h.209a.465.465,0,0,0,.34-.16.516.516,0,0,0,.132-.3v-.266l-.009-.01h0a.3.3,0,0,1-.07-.164.2.2,0,0,1,0-.03.3.3,0,0,1,.053-.169.31.31,0,0,1,.028-.034v-8.112h.446v8.187a.17.17,0,0,0-.11.156.166.166,0,0,0,.089.146.1.1,0,0,0,.021.009v.133a1.033,1.033,0,0,1-.247.75.913.913,0,0,1-.669.3h-.255a.166.166,0,0,0-.317,0h-.362v.845l-.527-.286h0l-.493.287Zm2.658-2.239h0Zm-24.376,1.69v-.956h0c0-.011,0-.022,0-.033v-7.8a.916.916,0,1,1,1.833,0v7.8a.974.974,0,0,1-.916.987h-.021v0Zm23.213-1.354h-8.559a.864.864,0,0,1,.768-.487h7.024a.832.832,0,0,1,.494.163l0,0,0,0h0a.78.78,0,0,1-.18-.493v-6.713a.823.823,0,0,1,.486-.733v8.265Zm-.25-.3v0c-.007-.008-.014-.016-.021-.025Zm3.205-1.04a.917.917,0,0,1,.007-1.3l3.639-3.628h-3.022a.914.914,0,0,1,0-1.827h5.25a.9.9,0,0,1,.886.833c0,.008,0,.014,0,.021s0,.039,0,.059v0a.925.925,0,0,1-.273.656l-1.97,1.964a3.341,3.341,0,0,1,1.337.855,3.656,3.656,0,0,1,.929,2.612h-1.835a1.913,1.913,0,0,0-.437-1.368,2.172,2.172,0,0,0-1.565-.533l-.322.321-.015.012-1.313,1.309a.929.929,0,0,1-.658.273A.908.908,0,0,1,2632.3,1674.468Zm10.745.25h-.895v-3.481h-.614v2.558a.919.919,0,0,1-.916.923h-.916v-6.369a.916.916,0,1,1,1.832,0v1.062h.614v-1.062a.916.916,0,1,1,1.832,0v5.446a.919.919,0,0,1-.916.923Zm-25.4-.012h-.895v-6.359a.916.916,0,1,1,1.832,0v1.063h.9a.928.928,0,0,1,.933.83.914.914,0,0,1-.912,1h-.922v2.547a.919.919,0,0,1-.916.922Zm-7.584,0a.972.972,0,0,1-.108-.007h-.8v-6.115a.909.909,0,0,1,.907-.913h5.17a.913.913,0,0,1,0,1.826h-4.245v3.382h4.245a.913.913,0,0,1,0,1.826Zm11.074-3.524a3.507,3.507,0,1,1,3.507,3.5A3.506,3.506,0,0,1,2621.129,1671.183Zm1.78,0a1.727,1.727,0,1,0,1.727-1.722A1.726,1.726,0,0,0,2622.909,1671.183Zm-24.812,0a3.507,3.507,0,1,1,3.506,3.5A3.505,3.505,0,0,1,2598.1,1671.183Zm1.78,0a1.727,1.727,0,1,0,1.727-1.722A1.727,1.727,0,0,0,2599.877,1671.183Zm34.746-4.979a.922.922,0,1,1,.923.919A.921.921,0,0,1,2634.623,1666.2Z" transform="translate(-1914.098 -747.285)" fill="#070203"/></g></svg>