<svg xmlns="http://www.w3.org/2000/svg" xmlns:xlink="http://www.w3.org/1999/xlink" width="68" height="68" viewBox="0 0 68 68"><defs><clipPath id="a"><path d="M1056.668,710.472h9.754s-.041-3.257,0-3.378-.008-4.956,0-5.121,0-4.345,0-4.345l3.757.647,4.55-3.159-4.55-7.5-9.052-1.634-8.776-.914-.495,21.526v2.136Z" transform="translate(-1051.855 -685.063)" fill="#070203"/></clipPath></defs><g transform="translate(-775 -892)"><rect width="68" height="68" rx="20" transform="translate(775 892)" fill="#f7f7f7"/><g transform="translate(-243.036 224.181)"><g transform="translate(1045.163 690.876)" clip-path="url(#a)"><path d="M113.949,32.485c.023.3.095.554.1.874a4.846,4.846,0,0,1,1.646.252l.032.07c-.117-.93-.657-2.275-1.71-2.212a8.732,8.732,0,0,0-.068,1.016" transform="translate(-96.611 -27.558)" fill="#070203"/><path d="M36.913,22.646l.049-.029a1.044,1.044,0,0,0,1.01-.08l-.175-.176c-.444.193-.587-.141-.587-.141a1.524,1.524,0,0,1-.333-1.337l-.111.229a1.4,1.4,0,0,0-.181.768c-1.171.693-5.99,4.238-5.978,14.655v.177H21.353V9.583H41.021v2.478l.054,0c.08,0,.156.007.233.012V9.294H21.065V37H41.309V23.885l-.026-.006c-.09-.022-.176-.041-.262-.061V36.711H31.368c0-.059,0-.119,0-.177a29.193,29.193,0,0,1,.2-3.439C33.6,31.329,33.819,32,33.819,32a1.2,1.2,0,0,0,1.734,1.065,8.252,8.252,0,0,0,3.395-2.712,11.824,11.824,0,0,0-3.3-1.195c-2.733-.129-2.047,1.76-2.047,1.76a5.946,5.946,0,0,1,3.534-.486,10.432,10.432,0,0,0-5.486,2.024c1-6.834,4.36-9.252,5.261-9.811" transform="translate(-25.397 -10.694)" fill="#070203"/><path d="M98.5,57.686a.616.616,0,0,1,.069-.035h0Z" transform="translate(-85.605 -46.178)" fill="#070203"/><path d="M106.136,41.688a4.112,4.112,0,0,0-.349-.7,6.178,6.178,0,0,0-.317-.741,1.58,1.58,0,0,0-1.317-.519,2.682,2.682,0,0,0-.755-.043c-.235.083-.243.363-.254.633a4.908,4.908,0,0,1-.19,1.726,3.073,3.073,0,0,1-1.014,1.2A5.8,5.8,0,0,1,99.406,44.7a2.232,2.232,0,0,0-.669.168,15.3,15.3,0,0,1,2.256.133,11.535,11.535,0,0,0,2.311.36,3.356,3.356,0,0,0,2.738-2.076,2.383,2.383,0,0,0,.095-1.592" transform="translate(-85.775 -33.39)" fill="#070203"/><path d="M96.929,35.221a3.934,3.934,0,0,0,2.542-3.554,17.892,17.892,0,0,0-.159-1.82c-.029-.538.183-1.231-.126-1.688-.673-1-2.47-.278-3.215.21-1.278.839-1.506,2.226-1.39,3.766a5.363,5.363,0,0,1-.127,1.9,3.041,3.041,0,0,0-.168,1.8c.255.8.645.512,1.152.166a11.386,11.386,0,0,1,1.491-.777" transform="translate(-82.545 -24.849)" fill="#070203"/></g><path d="M34.381,21.31l-.588.084L33.8,31.428H13.57V4.572H33.8L33.786,8.6a7.1,7.1,0,0,1,1.57.761L35.368,3H12V33H35.368V20.822c-.09.17-.514.342-.514.342" transform="translate(1029.036 683.82)" fill="#070203"/></g></g></svg>