<svg xmlns="http://www.w3.org/2000/svg" width="68" height="68" viewBox="0 0 68 68"><g transform="translate(-876 -892)"><rect width="68" height="68" rx="20" transform="translate(876 892)" fill="#f7f7f7"/><g transform="translate(863 252)"><rect width="33" height="33" transform="translate(29 657)" fill="#f7f7f7" opacity="0"/><path d="M8.224,11.95a10.785,10.785,0,0,1-2-.23l-.046-.01-3.557-.9L2.514,10.8c-.7-.071-.846-.085-2.118.706a.75.75,0,0,1-1.033-.241A.75.75,0,0,1-.4,10.233c1.574-.979,2.037-1.028,3.06-.925l.16.016.057.005,3.645.92a5.339,5.339,0,0,0,4.146-.484l10.2-6.926a1.168,1.168,0,0,0,.208-1.629A1.177,1.177,0,0,0,19.434.99l-.047.033c-.091.059-2.244,1.452-2.906,1.853A.75.75,0,0,1,15.7,1.593c.609-.369,2.614-1.665,2.847-1.815A2.679,2.679,0,0,1,22.272.3a2.668,2.668,0,0,1-.507,3.744l-.033.023-10.279,6.98-.031.017A6.414,6.414,0,0,1,8.224,11.95Z" transform="translate(39.498 675.042) rotate(7)" fill="#070203"/><path d="M0,7.033a.749.749,0,0,1-.589-.285A.75.75,0,0,1-.465,5.695L6.9-.127l.034-.021a3.946,3.946,0,0,1,3.494-.343l5.341,2.008a2.494,2.494,0,0,1,1.342,1.4,2.448,2.448,0,0,1-.062,1.9,2.554,2.554,0,0,1-3.322,1.264L10.2,4.745a.75.75,0,1,1,.535-1.4l3.573,1.364A1.048,1.048,0,0,0,15.684,4.2a.96.96,0,0,0,.025-.747,1,1,0,0,0-.527-.556L9.895.912a2.441,2.441,0,0,0-2.132.19l-7.3,5.77A.747.747,0,0,1,0,7.033Z" transform="translate(36.273 673.193) rotate(7)" fill="#070203"/><rect width="5.547" height="13.868" rx="2.774" transform="translate(29 678.233) rotate(-23)" fill="#f7f7f7"/><path d="M2.774,1.5A1.275,1.275,0,0,0,1.5,2.774v8.321a1.274,1.274,0,1,0,2.547,0V2.774A1.275,1.275,0,0,0,2.774,1.5m0-1.5A2.774,2.774,0,0,1,5.547,2.774v8.321a2.774,2.774,0,1,1-5.547,0V2.774A2.774,2.774,0,0,1,2.774,0Z" transform="translate(29 678.233) rotate(-23)"/><path d="M4.908,1.5a3.033,3.033,0,0,0-.327.017H4.575A3.152,3.152,0,0,0,1.717,3.752a3.923,3.923,0,0,0,.668,3.836L8.4,12.96a.276.276,0,0,0,.378,0l6.015-5.374a3.923,3.923,0,0,0,.668-3.836A3.152,3.152,0,0,0,12.6,1.517H12.6A3.033,3.033,0,0,0,12.27,1.5,3.635,3.635,0,0,0,9.7,2.632l0,0a1.546,1.546,0,0,1-2.208,0l0,0A3.632,3.632,0,0,0,4.908,1.5m0-1.5A5.119,5.119,0,0,1,8.557,1.587a.046.046,0,0,0,.065,0A5.119,5.119,0,0,1,12.27,0a4.55,4.55,0,0,1,.488.025c4.911.51,5.42,6.468,3.046,8.671L9.777,14.08a1.776,1.776,0,0,1-2.375,0L1.374,8.7C-1,6.493-.491.535,4.42.025A4.55,4.55,0,0,1,4.908,0Z" transform="translate(44.225 658.658)" fill="#5055b1"/></g></g></svg>