<svg xmlns="http://www.w3.org/2000/svg" width="68" height="68" viewBox="0 0 68 68"><g transform="translate(-976 -892)"><rect width="68" height="68" rx="20" transform="translate(976 892)" fill="#f7f7f7"/><g transform="translate(-195 -122)"><rect width="30" height="30" transform="translate(1190 1033)" fill="none"/><g transform="translate(1189.998 1037.531)"><path d="M18.5,19.5a10,10,0,1,0,0-20h-7a10.012,10.012,0,0,0-10,10c0,.253.01.509.028.761l.009.117-.01.117c-.018.218-.027.441-.027.661A8.06,8.06,0,0,0,2.971,15.8l.5.714L2.185,19.226,6.2,18.58l.4.176A8.943,8.943,0,0,0,10.2,19.5c.179,0,.361-.005.541-.016l.087-.005.087.005c.194.011.391.017.586.017h7m0,1.5h-7q-.338,0-.672-.019Q10.518,21,10.2,21a10.48,10.48,0,0,1-4.192-.868l-5.347.859a.551.551,0,0,1-.608-.766l1.689-3.569A9.559,9.559,0,0,1,0,11.155q0-.4.032-.782Q0,9.94,0,9.5A11.5,11.5,0,0,1,11.5-2h7a11.5,11.5,0,1,1,0,23Z" transform="translate(0.002 0.469)"/></g><path d="M752.322,6153.964l-.647.98-1.634-1.05.854-1-1.183-.321.625-1.785,1.134.458-.09-1.243h1.993l-.093,1.27,1.1-.444.622,1.8-1.2.323.81.964L752.98,6155Zm-6.357,0-.647.98-1.634-1.05.854-1-1.183-.321.625-1.785,1.134.458-.09-1.243h1.993l-.093,1.27,1.094-.444.622,1.8-1.2.323.81.964L746.623,6155Zm-6.357,0-.647.98-1.635-1.05.856-1-1.183-.321.624-1.785,1.136.458-.09-1.243h1.993l-.093,1.27,1.094-.444.622,1.8-1.2.323.81.964L740.266,6155Z" transform="translate(459 -5105.001)" fill="#5055b1"/></g></g></svg>