<svg xmlns="http://www.w3.org/2000/svg" width="68" height="68" viewBox="0 0 68 68"><g transform="translate(-1077 -892)"><rect width="68" height="68" rx="20" transform="translate(1077 892)" fill="#f7f7f7"/><g transform="translate(0 -8)"><path d="M2,1.5a.5.5,0,0,0-.5.5V18a.5.5,0,0,0,.5.5H6A1.5,1.5,0,0,0,7.5,17V3A1.5,1.5,0,0,0,6,1.5H2M2,0H6A3,3,0,0,1,9,3V17a3,3,0,0,1-3,3H2a2,2,0,0,1-2-2V2A2,2,0,0,1,2,0Z" transform="translate(1096 926)"/><path d="M567.506-5104.459a.75.75,0,0,1-.732-.588.75.75,0,0,1,.57-.895,10.286,10.286,0,0,0,4.417-2.35c1.782-1.788,3.575-6.278,3.593-6.323l.021-.053.029-.049a2.542,2.542,0,0,1,3.232-.983c1.978.8,1.928,2.8,1.9,3.755l0,.088c-.022.951-.811,4.533-2.2,6.12a.75.75,0,0,1-1.058.072.75.75,0,0,1-.072-1.058,12.075,12.075,0,0,0,1.827-5.167l0-.091c.026-1.048-.029-1.947-.967-2.327a1.094,1.094,0,0,0-1.009.013,1.2,1.2,0,0,0-.346.312c-.26.643-2.011,4.863-3.894,6.752a11.677,11.677,0,0,1-5.155,2.756A.774.774,0,0,1,567.506-5104.459Z" transform="translate(537 6035)"/><path d="M585.61-5100.925h-4.582a.75.75,0,0,1-.75-.75.75.75,0,0,1,.75-.75h4.533a1.4,1.4,0,0,0,.57-.2,1.158,1.158,0,0,0,.472-1.079,1.248,1.248,0,0,0-.5-1.11,1.362,1.362,0,0,0-.551-.208h-9.928a.75.75,0,0,1-.75-.75.75.75,0,0,1,.75-.75h10.01a2.824,2.824,0,0,1,1.221.406,2.67,2.67,0,0,1,1.246,2.39,2.628,2.628,0,0,1-1.236,2.406,2.873,2.873,0,0,1-1.24.394Z" transform="translate(537 6035)"/><path d="M585.61-5100.925h-4.588a.75.75,0,0,1-.75-.75.75.75,0,0,1,.75-.75h4.539a1.4,1.4,0,0,0,.57-.2,1.158,1.158,0,0,0,.472-1.079,1.248,1.248,0,0,0-.5-1.11,1.362,1.362,0,0,0-.551-.208h-3.687a.75.75,0,0,1-.75-.75.75.75,0,0,1,.75-.75h3.768a2.824,2.824,0,0,1,1.221.406,2.67,2.67,0,0,1,1.246,2.39,2.628,2.628,0,0,1-1.236,2.406,2.873,2.873,0,0,1-1.24.394Z" transform="translate(537 6039.099)"/><path d="M585.61-5100.925h-4.332a.75.75,0,0,1-.75-.75.75.75,0,0,1,.75-.75h4.282a1.4,1.4,0,0,0,.57-.2,1.158,1.158,0,0,0,.472-1.079,1.234,1.234,0,0,0-.534-1.133,1.376,1.376,0,0,0-.511-.184h-3.69a.75.75,0,0,1-.75-.75.75.75,0,0,1,.75-.75h3.768a2.824,2.824,0,0,1,1.221.406,2.67,2.67,0,0,1,1.246,2.39,2.628,2.628,0,0,1-1.236,2.406,2.873,2.873,0,0,1-1.24.394Z" transform="translate(537 6043.197)"/><path d="M577.265-5089.129c-1.65,0-3.269-.035-4.41-.14a10.716,10.716,0,0,1-5.854-2.409.75.75,0,0,1-.049-1.06.75.75,0,0,1,1.058-.05,9.361,9.361,0,0,0,4.981,2.024c3.124.287,10.283.021,10.841,0a1.374,1.374,0,0,0,.481-.178.758.758,0,0,0,.368-.707.917.917,0,0,0-.407-.806,1.656,1.656,0,0,0-.535-.249h.007l.3-1.47a2.613,2.613,0,0,1,2.136,2.533,2.383,2.383,0,0,1-2.213,2.37l-.043,0C583.721-5089.258,580.437-5089.129,577.265-5089.129Z" transform="translate(537 6035)"/><rect width="30" height="30" transform="translate(1096 919)" fill="#fff" opacity="0"/><circle cx="1.5" cy="1.5" r="1.5" transform="translate(1099 939)" fill="#5055b1"/></g></g></svg>