<svg xmlns="http://www.w3.org/2000/svg" width="68" height="68" viewBox="0 0 68 68"><g transform="translate(-1178 -892)"><rect width="68" height="68" rx="20" transform="translate(1178 892)" fill="#f7f7f7"/><path d="M541,6065a3,3,0,0,1-3-3v-24h.035a3.5,3.5,0,0,1,3.464-3h17.749a.75.75,0,1,1,0,1.5H559v4h2a3,3,0,0,1,3,3V6062a3,3,0,0,1-3,3Zm-1.5-3a1.5,1.5,0,0,0,1.5,1.5h20a1.5,1.5,0,0,0,1.5-1.5v-18.5a1.5,1.5,0,0,0-1.5-1.5H541.5a3.484,3.484,0,0,1-2-.628Zm19.5-21.5v-4H541.5a2,2,0,1,0,0,4H559Z" transform="translate(661 -5125)"/><g transform="translate(-310 829)"><path d="M3.277,1.5A1.77,1.77,0,1,0,5.053,3.27,1.775,1.775,0,0,0,3.277,1.5m0-1.5A3.27,3.27,0,1,1,0,3.27,3.273,3.273,0,0,1,3.277,0Z" transform="translate(1518.725 92)" fill="#5055b1"/><path d="M3.472,1.5A1.972,1.972,0,0,0,1.5,3.468a.483.483,0,0,0,.484.482h8.035a.483.483,0,0,0,.484-.482A1.972,1.972,0,0,0,8.531,1.5H3.472m0-1.5H8.531A3.47,3.47,0,0,1,12,3.468a1.983,1.983,0,0,1-1.984,1.982H1.984A1.983,1.983,0,0,1,0,3.468,3.47,3.47,0,0,1,3.472,0Z" transform="translate(1516 99.075)" fill="#5055b1"/></g><rect width="30" height="30" transform="translate(1197 911)" fill="none"/></g></svg>